<?xml version="1.0" encoding="utf-8"?>
<!-- Generator: Adobe Illustrator 22.0.0, SVG Export Plug-In . SVG Version: 6.00 Build 0)  -->
<svg version="1.1" id="圖層_1" xmlns="http://www.w3.org/2000/svg" xmlns:xlink="http://www.w3.org/1999/xlink" x="0px" y="0px"
	 viewBox="0 0 8 8" style="enable-background:new 0 0 8 8;" xml:space="preserve">
<style type="text/css">
	.st0{fill:#B09168;}
</style>
<path class="st0" d="M6.7,2.4H1.3C1.1,2.4,0.9,2.2,0.9,2l0,0c0-0.2,0.2-0.4,0.4-0.4h5.4c0.2,0,0.4,0.2,0.4,0.4l0,0
	C7.1,2.2,6.9,2.4,6.7,2.4z"/>
<path class="st0" d="M6.7,4.3H1.3C1.1,4.3,0.9,4.2,0.9,4l0,0c0-0.2,0.2-0.4,0.4-0.4h5.4c0.2,0,0.4,0.2,0.4,0.4l0,0
	C7.1,4.2,6.9,4.3,6.7,4.3z"/>
<path class="st0" d="M6.7,6.3H1.3C1.1,6.3,0.9,6.2,0.9,6l0,0c0-0.2,0.2-0.4,0.4-0.4h5.4c0.2,0,0.4,0.2,0.4,0.4l0,0
	C7.1,6.2,6.9,6.3,6.7,6.3z"/>
</svg>
